<mxfile host="app.diagrams.net" modified="2020-11-08T13:39:12.469Z" agent="5.0 (Windows)" etag="clD1ebcAwERKVI9vSkjQ" version="13.8.8" type="github">
  <diagram name="Page-1" id="13e1069c-82ec-6db2-03f1-153e76fe0fe0">
    <mxGraphModel dx="920" dy="508" grid="1" gridSize="10" guides="1" tooltips="1" connect="1" arrows="1" fold="1" page="1" pageScale="1" pageWidth="1100" pageHeight="850" background="#ffffff" math="0" shadow="0">
      <root>
        <mxCell id="0" />
        <mxCell id="1" parent="0" />
        <mxCell id="7baba1c4bc27f4b0-2" value="LOGISTIC" style="shape=umlLifeline;perimeter=lifelinePerimeter;whiteSpace=wrap;html=1;container=1;collapsible=0;recursiveResize=0;outlineConnect=0;rounded=1;shadow=0;comic=0;labelBackgroundColor=none;strokeWidth=1;fontFamily=Verdana;fontSize=12;align=center;fillColor=#f0a30a;strokeColor=#BD7000;" parent="1" vertex="1">
          <mxGeometry x="609" y="20" width="100" height="1100" as="geometry" />
        </mxCell>
        <mxCell id="0I0aZaQKAUuMr8kHft-a-18" value="" style="html=1;points=[];perimeter=orthogonalPerimeter;fillColor=#f0a30a;strokeColor=#BD7000;fontColor=#ffffff;" vertex="1" parent="7baba1c4bc27f4b0-2">
          <mxGeometry x="45" y="310" width="10" height="80" as="geometry" />
        </mxCell>
        <mxCell id="0I0aZaQKAUuMr8kHft-a-21" value="" style="html=1;points=[];perimeter=orthogonalPerimeter;fillColor=#f0a30a;strokeColor=#BD7000;fontColor=#ffffff;" vertex="1" parent="7baba1c4bc27f4b0-2">
          <mxGeometry x="45" y="310" width="10" height="80" as="geometry" />
        </mxCell>
        <mxCell id="0I0aZaQKAUuMr8kHft-a-22" value="&lt;div&gt;2.1: execute API AWB Generator&lt;/div&gt;&lt;div&gt;(CItyId, &lt;br&gt;&lt;/div&gt;" style="html=1;verticalAlign=bottom;endArrow=block;entryX=0;entryY=0;" edge="1" target="0I0aZaQKAUuMr8kHft-a-21" parent="7baba1c4bc27f4b0-2">
          <mxGeometry relative="1" as="geometry">
            <mxPoint x="-182" y="310" as="sourcePoint" />
          </mxGeometry>
        </mxCell>
        <mxCell id="0I0aZaQKAUuMr8kHft-a-23" value="return" style="html=1;verticalAlign=bottom;endArrow=open;dashed=1;endSize=8;exitX=0;exitY=0.95;" edge="1" source="0I0aZaQKAUuMr8kHft-a-21" parent="7baba1c4bc27f4b0-2">
          <mxGeometry relative="1" as="geometry">
            <mxPoint x="-182" y="385.9999999999999" as="targetPoint" />
          </mxGeometry>
        </mxCell>
        <mxCell id="0I0aZaQKAUuMr8kHft-a-24" value="" style="html=1;points=[];perimeter=orthogonalPerimeter;fillColor=#ffe6cc;strokeColor=#d79b00;" vertex="1" parent="7baba1c4bc27f4b0-2">
          <mxGeometry x="52" y="341" width="10" height="40" as="geometry" />
        </mxCell>
        <mxCell id="0I0aZaQKAUuMr8kHft-a-25" value="&lt;div&gt;Generate&lt;/div&gt;&lt;div&gt;AWB&lt;br&gt;&lt;/div&gt;" style="edgeStyle=orthogonalEdgeStyle;html=1;align=left;spacingLeft=2;endArrow=block;rounded=0;entryX=1;entryY=0;fontColor=#000000;fillColor=#ffe6cc;strokeColor=#d79b00;" edge="1" target="0I0aZaQKAUuMr8kHft-a-24" parent="7baba1c4bc27f4b0-2">
          <mxGeometry relative="1" as="geometry">
            <mxPoint x="57" y="321" as="sourcePoint" />
            <Array as="points">
              <mxPoint x="82" y="321" />
            </Array>
          </mxGeometry>
        </mxCell>
        <mxCell id="0I0aZaQKAUuMr8kHft-a-42" value="" style="html=1;points=[];perimeter=orthogonalPerimeter;fontColor=#ffffff;fillColor=#f0a30a;strokeColor=#BD7000;" vertex="1" parent="7baba1c4bc27f4b0-2">
          <mxGeometry x="45" y="750" width="10" height="60" as="geometry" />
        </mxCell>
        <mxCell id="0I0aZaQKAUuMr8kHft-a-45" value="" style="html=1;points=[];perimeter=orthogonalPerimeter;fontColor=#ffffff;fillColor=#f0a30a;strokeColor=#BD7000;" vertex="1" parent="7baba1c4bc27f4b0-2">
          <mxGeometry x="45" y="880" width="10" height="200" as="geometry" />
        </mxCell>
        <mxCell id="7baba1c4bc27f4b0-8" value="DOCTRACT" style="shape=umlLifeline;perimeter=lifelinePerimeter;whiteSpace=wrap;html=1;container=1;collapsible=0;recursiveResize=0;outlineConnect=0;rounded=1;shadow=0;comic=0;labelBackgroundColor=none;strokeWidth=1;fontFamily=Verdana;fontSize=12;align=center;fillColor=#f0a30a;strokeColor=#BD7000;" parent="1" vertex="1">
          <mxGeometry x="370" y="20" width="100" height="1100" as="geometry" />
        </mxCell>
        <mxCell id="0I0aZaQKAUuMr8kHft-a-6" value="" style="html=1;points=[];perimeter=orthogonalPerimeter;fillColor=#f0a30a;strokeColor=#BD7000;fontColor=#ffffff;" vertex="1" parent="7baba1c4bc27f4b0-8">
          <mxGeometry x="47" y="130" width="10" height="80" as="geometry" />
        </mxCell>
        <mxCell id="0I0aZaQKAUuMr8kHft-a-7" value="1:Register Package" style="html=1;verticalAlign=bottom;endArrow=block;entryX=0;entryY=0;" edge="1" target="0I0aZaQKAUuMr8kHft-a-6" parent="7baba1c4bc27f4b0-8">
          <mxGeometry relative="1" as="geometry">
            <mxPoint x="-180" y="130" as="sourcePoint" />
          </mxGeometry>
        </mxCell>
        <mxCell id="0I0aZaQKAUuMr8kHft-a-8" value="return" style="html=1;verticalAlign=bottom;endArrow=open;dashed=1;endSize=8;exitX=0;exitY=0.95;" edge="1" source="0I0aZaQKAUuMr8kHft-a-6" parent="7baba1c4bc27f4b0-8">
          <mxGeometry relative="1" as="geometry">
            <mxPoint x="-180" y="206" as="targetPoint" />
          </mxGeometry>
        </mxCell>
        <mxCell id="0I0aZaQKAUuMr8kHft-a-15" value="" style="html=1;points=[];perimeter=orthogonalPerimeter;fillColor=#f0a30a;strokeColor=#BD7000;fontColor=#ffffff;" vertex="1" parent="7baba1c4bc27f4b0-8">
          <mxGeometry x="47" y="270" width="10" height="250" as="geometry" />
        </mxCell>
        <mxCell id="0I0aZaQKAUuMr8kHft-a-16" value="2: Request Pickup" style="html=1;verticalAlign=bottom;endArrow=block;entryX=0;entryY=0;" edge="1" target="0I0aZaQKAUuMr8kHft-a-15" parent="7baba1c4bc27f4b0-8">
          <mxGeometry relative="1" as="geometry">
            <mxPoint x="-180" y="270" as="sourcePoint" />
          </mxGeometry>
        </mxCell>
        <mxCell id="0I0aZaQKAUuMr8kHft-a-17" value="return" style="html=1;verticalAlign=bottom;endArrow=open;dashed=1;endSize=8;exitX=0;exitY=0.95;" edge="1" source="0I0aZaQKAUuMr8kHft-a-15" parent="7baba1c4bc27f4b0-8">
          <mxGeometry relative="1" as="geometry">
            <mxPoint x="-170" y="510" as="targetPoint" />
          </mxGeometry>
        </mxCell>
        <mxCell id="0I0aZaQKAUuMr8kHft-a-33" value="" style="html=1;points=[];perimeter=orthogonalPerimeter;fontColor=#ffffff;fillColor=#f0a30a;strokeColor=#BD7000;" vertex="1" parent="7baba1c4bc27f4b0-8">
          <mxGeometry x="45" y="590" width="10" height="80" as="geometry" />
        </mxCell>
        <mxCell id="0I0aZaQKAUuMr8kHft-a-34" value="3: Update Picker " style="html=1;verticalAlign=bottom;endArrow=block;entryX=0;entryY=0;fontColor=#000000;" edge="1" target="0I0aZaQKAUuMr8kHft-a-33" parent="7baba1c4bc27f4b0-8">
          <mxGeometry relative="1" as="geometry">
            <mxPoint x="-170" y="590" as="sourcePoint" />
          </mxGeometry>
        </mxCell>
        <mxCell id="0I0aZaQKAUuMr8kHft-a-35" value="return" style="html=1;verticalAlign=bottom;endArrow=open;dashed=1;endSize=8;exitX=0;exitY=0.95;fontColor=#000000;" edge="1" source="0I0aZaQKAUuMr8kHft-a-33" parent="7baba1c4bc27f4b0-8">
          <mxGeometry relative="1" as="geometry">
            <mxPoint x="-170" y="666" as="targetPoint" />
          </mxGeometry>
        </mxCell>
        <mxCell id="0I0aZaQKAUuMr8kHft-a-37" value="" style="html=1;points=[];perimeter=orthogonalPerimeter;fillColor=#ffe6cc;strokeColor=#d79b00;" vertex="1" parent="7baba1c4bc27f4b0-8">
          <mxGeometry x="50" y="620" width="10" height="40" as="geometry" />
        </mxCell>
        <mxCell id="0I0aZaQKAUuMr8kHft-a-38" value="&lt;div&gt;Save Picker&lt;/div&gt;&lt;div&gt;&amp;amp; Picked Date&lt;br&gt;&lt;/div&gt;" style="edgeStyle=orthogonalEdgeStyle;html=1;align=left;spacingLeft=2;endArrow=block;rounded=0;entryX=1;entryY=0;fontColor=#000000;" edge="1" target="0I0aZaQKAUuMr8kHft-a-37" parent="7baba1c4bc27f4b0-8">
          <mxGeometry relative="1" as="geometry">
            <mxPoint x="55" y="600" as="sourcePoint" />
            <Array as="points">
              <mxPoint x="80" y="600" />
            </Array>
          </mxGeometry>
        </mxCell>
        <mxCell id="0I0aZaQKAUuMr8kHft-a-51" value="" style="html=1;points=[];perimeter=orthogonalPerimeter;fontColor=#ffffff;fillColor=#f0a30a;strokeColor=#BD7000;" vertex="1" parent="7baba1c4bc27f4b0-8">
          <mxGeometry x="46" y="940" width="10" height="130" as="geometry" />
        </mxCell>
        <mxCell id="0I0aZaQKAUuMr8kHft-a-52" value="" style="html=1;points=[];perimeter=orthogonalPerimeter;fontColor=#000000;" vertex="1" parent="7baba1c4bc27f4b0-8">
          <mxGeometry x="52" y="990" width="10" height="40" as="geometry" />
        </mxCell>
        <mxCell id="0I0aZaQKAUuMr8kHft-a-53" value="Save Package Activity" style="edgeStyle=orthogonalEdgeStyle;html=1;align=left;spacingLeft=2;endArrow=block;rounded=0;entryX=1;entryY=0;fontColor=#000000;" edge="1" target="0I0aZaQKAUuMr8kHft-a-52" parent="7baba1c4bc27f4b0-8">
          <mxGeometry x="-0.2308" y="-8" relative="1" as="geometry">
            <mxPoint x="57" y="970" as="sourcePoint" />
            <Array as="points">
              <mxPoint x="82" y="970" />
            </Array>
            <mxPoint x="1" as="offset" />
          </mxGeometry>
        </mxCell>
        <mxCell id="0I0aZaQKAUuMr8kHft-a-2" value="USER" style="shape=umlActor;verticalLabelPosition=bottom;verticalAlign=top;html=1;outlineConnect=0;fillColor=#f0a30a;strokeColor=#BD7000;fontColor=#ffffff;" vertex="1" parent="1">
          <mxGeometry x="180" y="20" width="30" height="60" as="geometry" />
        </mxCell>
        <mxCell id="0I0aZaQKAUuMr8kHft-a-5" value="" style="endArrow=none;dashed=1;html=1;fillColor=#f0a30a;strokeColor=#BD7000;" edge="1" parent="1">
          <mxGeometry width="50" height="50" relative="1" as="geometry">
            <mxPoint x="190" y="1120" as="sourcePoint" />
            <mxPoint x="195" y="90" as="targetPoint" />
          </mxGeometry>
        </mxCell>
        <mxCell id="0I0aZaQKAUuMr8kHft-a-12" value="" style="html=1;points=[];perimeter=orthogonalPerimeter;fillColor=#f0a30a;strokeColor=#BD7000;fontColor=#ffffff;" vertex="1" parent="1">
          <mxGeometry x="417" y="150" width="10" height="80" as="geometry" />
        </mxCell>
        <mxCell id="0I0aZaQKAUuMr8kHft-a-13" value="1:Register Package" style="html=1;verticalAlign=bottom;endArrow=block;entryX=0;entryY=0;" edge="1" parent="1" target="0I0aZaQKAUuMr8kHft-a-12">
          <mxGeometry relative="1" as="geometry">
            <mxPoint x="190" y="150" as="sourcePoint" />
          </mxGeometry>
        </mxCell>
        <mxCell id="0I0aZaQKAUuMr8kHft-a-14" value="return" style="html=1;verticalAlign=bottom;endArrow=open;dashed=1;endSize=8;exitX=0;exitY=0.95;" edge="1" parent="1" source="0I0aZaQKAUuMr8kHft-a-12">
          <mxGeometry relative="1" as="geometry">
            <mxPoint x="190" y="225.9999999999999" as="targetPoint" />
          </mxGeometry>
        </mxCell>
        <mxCell id="0I0aZaQKAUuMr8kHft-a-26" value="" style="html=1;points=[];perimeter=orthogonalPerimeter;fillColor=#ffe6cc;strokeColor=#d79b00;" vertex="1" parent="1">
          <mxGeometry x="420" y="450" width="10" height="40" as="geometry" />
        </mxCell>
        <mxCell id="0I0aZaQKAUuMr8kHft-a-27" value="Save AWB" style="edgeStyle=orthogonalEdgeStyle;html=1;align=left;spacingLeft=2;endArrow=block;rounded=0;entryX=1;entryY=0;fontColor=#000000;fillColor=#ffe6cc;strokeColor=#d79b00;exitX=1.029;exitY=0.515;exitDx=0;exitDy=0;exitPerimeter=0;" edge="1" target="0I0aZaQKAUuMr8kHft-a-26" parent="1" source="0I0aZaQKAUuMr8kHft-a-15">
          <mxGeometry relative="1" as="geometry">
            <mxPoint x="1044" y="520" as="sourcePoint" />
            <Array as="points">
              <mxPoint x="427" y="430" />
              <mxPoint x="450" y="430" />
              <mxPoint x="450" y="450" />
            </Array>
          </mxGeometry>
        </mxCell>
        <mxCell id="0I0aZaQKAUuMr8kHft-a-28" value="" style="html=1;points=[];perimeter=orthogonalPerimeter;fillColor=#ffe6cc;strokeColor=#d79b00;" vertex="1" parent="1">
          <mxGeometry x="420" y="184" width="10" height="40" as="geometry" />
        </mxCell>
        <mxCell id="0I0aZaQKAUuMr8kHft-a-29" value="&lt;div&gt;Save Package&lt;/div&gt;&lt;div&gt;&amp;amp; Items&lt;br&gt;&lt;/div&gt;" style="edgeStyle=orthogonalEdgeStyle;html=1;align=left;spacingLeft=2;endArrow=block;rounded=0;entryX=1;entryY=0;fontColor=#000000;" edge="1" target="0I0aZaQKAUuMr8kHft-a-28" parent="1">
          <mxGeometry relative="1" as="geometry">
            <mxPoint x="425" y="170" as="sourcePoint" />
            <Array as="points">
              <mxPoint x="450" y="170" />
            </Array>
          </mxGeometry>
        </mxCell>
        <mxCell id="0I0aZaQKAUuMr8kHft-a-39" value="" style="html=1;points=[];perimeter=orthogonalPerimeter;fontColor=#ffffff;fillColor=#f0a30a;strokeColor=#BD7000;" vertex="1" parent="1">
          <mxGeometry x="415" y="750" width="10" height="100" as="geometry" />
        </mxCell>
        <mxCell id="0I0aZaQKAUuMr8kHft-a-40" value="4: Show Package Tracking History" style="html=1;verticalAlign=bottom;endArrow=block;entryX=0;entryY=0;fontColor=#000000;" edge="1" target="0I0aZaQKAUuMr8kHft-a-39" parent="1">
          <mxGeometry relative="1" as="geometry">
            <mxPoint x="200" y="750" as="sourcePoint" />
          </mxGeometry>
        </mxCell>
        <mxCell id="0I0aZaQKAUuMr8kHft-a-41" value="return" style="html=1;verticalAlign=bottom;endArrow=open;dashed=1;endSize=8;exitX=0.007;exitY=0.93;fontColor=#000000;exitDx=0;exitDy=0;exitPerimeter=0;" edge="1" source="0I0aZaQKAUuMr8kHft-a-39" parent="1">
          <mxGeometry relative="1" as="geometry">
            <mxPoint x="190" y="843" as="targetPoint" />
          </mxGeometry>
        </mxCell>
        <mxCell id="0I0aZaQKAUuMr8kHft-a-43" value="&lt;font color=&quot;#999900&quot;&gt;4.1 : Request Tracking&lt;/font&gt;" style="html=1;verticalAlign=bottom;endArrow=block;entryX=0;entryY=0;fontColor=#000000;fillColor=#e51400;strokeColor=#B20000;" edge="1" target="0I0aZaQKAUuMr8kHft-a-42" parent="1" source="7baba1c4bc27f4b0-8">
          <mxGeometry relative="1" as="geometry">
            <mxPoint x="584" y="770" as="sourcePoint" />
          </mxGeometry>
        </mxCell>
        <mxCell id="0I0aZaQKAUuMr8kHft-a-44" value="return" style="html=1;verticalAlign=bottom;endArrow=open;dashed=1;endSize=8;exitX=0;exitY=0.95;fontColor=#666600;" edge="1" source="0I0aZaQKAUuMr8kHft-a-42" parent="1" target="7baba1c4bc27f4b0-8">
          <mxGeometry relative="1" as="geometry">
            <mxPoint x="584" y="846" as="targetPoint" />
          </mxGeometry>
        </mxCell>
        <mxCell id="0I0aZaQKAUuMr8kHft-a-49" value="5: Activity Logs Update" style="html=1;verticalAlign=bottom;endArrow=block;fontColor=#000000;" edge="1" parent="1" target="7baba1c4bc27f4b0-2">
          <mxGeometry relative="1" as="geometry">
            <mxPoint x="910" y="910" as="sourcePoint" />
            <mxPoint x="425" y="760" as="targetPoint" />
          </mxGeometry>
        </mxCell>
        <mxCell id="0I0aZaQKAUuMr8kHft-a-50" value="5:1 Execute API Activity Logs Update" style="html=1;verticalAlign=bottom;endArrow=block;fontColor=#0000FF;" edge="1" parent="1">
          <mxGeometry relative="1" as="geometry">
            <mxPoint x="651.9300000000001" y="970" as="sourcePoint" />
            <mxPoint x="420" y="970" as="targetPoint" />
          </mxGeometry>
        </mxCell>
        <mxCell id="0I0aZaQKAUuMr8kHft-a-54" style="edgeStyle=orthogonalEdgeStyle;rounded=0;orthogonalLoop=1;jettySize=auto;html=1;fontColor=#000000;" edge="1" parent="1" source="7baba1c4bc27f4b0-2" target="7baba1c4bc27f4b0-2">
          <mxGeometry relative="1" as="geometry" />
        </mxCell>
        <mxCell id="0I0aZaQKAUuMr8kHft-a-55" value="return" style="html=1;verticalAlign=bottom;endArrow=open;dashed=1;endSize=8;fontColor=#000000;exitX=1.172;exitY=0.842;exitDx=0;exitDy=0;exitPerimeter=0;" edge="1" parent="1" source="0I0aZaQKAUuMr8kHft-a-51" target="7baba1c4bc27f4b0-2">
          <mxGeometry relative="1" as="geometry">
            <mxPoint x="312.47" y="1090" as="targetPoint" />
            <mxPoint x="537.54" y="1090" as="sourcePoint" />
          </mxGeometry>
        </mxCell>
      </root>
    </mxGraphModel>
  </diagram>
</mxfile>
